<svg width="193" height="31" viewBox="0 0 193 31" xmlns="http://www.w3.org/2000/svg"><title>FF90BC56-9515-44B4-9495-DAB3D3BF7598</title><g fill="none" fill-rule="evenodd"><path fill="#FFF" d="M0 .962v4.853h9.445v24.948h5.327V5.815h9.403V.962zM30.195.962v29.801h18.378V25.91H35.52V16.9h11.795v-4.69H35.52V5.815h13.053V.962zM55.877.962v29.801h18.378V25.91H61.202V.962zM80.088.962v29.801h18.378V25.91H85.411V16.9H97.21v-4.69H85.41V5.815h13.055V.962zM177.778.962l-8.223 19.467-.13-.309L161.291.962h-6.084l13.674 29.799h1.185L183.7.962zM105.7.96v29.803h5.324V12.014l17.869 18.734h1.305V.962h-5.325v18.469l-.245-.257L107.232.96z"/><path fill="#FFDE00" d="M147.065.322l-13.689 30.45h2.998l13.766-14.564-2.808 14.563h13.46z"/><path d="M189.232 3.818h.632c.645 0 .855-.185.855-.563 0-.329-.161-.516-.767-.516h-.72v1.079zm0 1.928h-.531v-3.44h1.323c.824 0 1.229.307 1.229.981 0 .62-.387.883-.905.948l.986 1.511h-.582l-.92-1.496h-.6v1.496zm.639-4.218c-1.389 0-2.465 1.068-2.465 2.49 0 1.454 1.076 2.509 2.465 2.509 1.375 0 2.45-1.055 2.45-2.51 0-1.421-1.075-2.489-2.45-2.489zm0-.483c1.633 0 3.03 1.262 3.03 2.973 0 1.728-1.397 2.99-3.03 2.99-1.649 0-3.046-1.262-3.046-2.99 0-1.711 1.397-2.973 3.046-2.973z" fill="#FFF"/></g></svg>